<?xml version="1.0" standalone="no"?>
<!DOCTYPE svg PUBLIC "-//W3C//DTD SVG 20010904//EN"
 "http://www.w3.org/TR/2001/REC-SVG-20010904/DTD/svg10.dtd">
<svg version="1.0" xmlns="http://www.w3.org/2000/svg"
 width="800.000000pt" height="600.000000pt" viewBox="0 0 800.000000 600.000000"
 preserveAspectRatio="xMidYMid meet">

<g transform="translate(0.000000,600.000000) scale(0.100000,-0.100000)"
fill="#000000" stroke="none">
<path d="M4211 4884 c-98 -17 -154 -45 -184 -94 -20 -32 -22 -52 -27 -220 -5
-177 -6 -187 -33 -242 -33 -68 -80 -111 -162 -149 -123 -58 -167 -62 -667 -68
l-456 -6 -26 -24 c-35 -33 -37 -112 -3 -162 48 -72 103 -91 310 -110 144 -12
167 -16 167 -28 0 -5 -159 -62 -352 -127 -404 -134 -414 -140 -405 -221 6 -54
30 -90 83 -121 37 -22 47 -23 159 -18 66 3 163 14 215 26 139 30 160 34 160
24 0 -5 -131 -98 -290 -208 -160 -109 -295 -207 -300 -217 -19 -34 -11 -86 16
-119 36 -43 74 -60 147 -66 96 -9 215 38 411 163 37 24 76 43 85 41 14 -3 17
-31 21 -241 l5 -239 33 -29 c74 -66 206 -13 259 106 15 34 19 79 23 320 l5
279 305 163 c168 89 310 163 316 163 7 0 148 -73 315 -163 l304 -164 5 -279
c5 -262 6 -281 27 -319 42 -79 129 -134 211 -135 37 0 50 6 79 35 35 35 36 37
29 98 -26 243 -16 396 40 615 58 228 56 347 -6 510 -60 153 -76 289 -90 740
-7 225 -14 321 -24 345 -46 107 -203 158 -480 156 -77 -1 -179 -7 -225 -15z"/>
<path d="M3870 2710 l0 -200 155 0 155 0 0 200 0 200 -155 0 -155 0 0 -200z"/>
<path d="M2400 2165 c0 -38 3 -46 12 -37 7 7 34 12 61 12 l48 0 -3 -135 -3
-135 45 0 45 0 -3 135 -3 135 56 0 c32 0 54 -4 50 -9 -3 -5 -1 -12 5 -16 15
-9 13 -218 -2 -233 -9 -9 0 -12 42 -12 42 0 51 3 42 12 -7 7 -12 31 -12 55 l0
43 75 0 75 0 0 -43 c0 -24 -5 -48 -12 -55 -9 -9 0 -12 42 -12 42 0 51 3 42 12
-16 16 -16 220 0 236 9 9 0 12 -42 12 -42 0 -51 -3 -42 -12 7 -7 12 -29 12
-50 l0 -38 -75 0 -75 0 0 38 c0 21 5 43 12 50 9 9 3 12 -30 12 l-42 0 -1 43
c0 23 -3 36 -6 30 -7 -18 -284 -18 -301 -1 -9 9 -12 1 -12 -37z"/>
<path d="M3469 2177 c-51 -26 -89 -89 -89 -147 0 -58 38 -121 89 -147 62 -32
129 -31 208 4 34 16 62 30 62 33 0 3 -9 16 -20 29 l-20 24 -15 -21 c-19 -27
-85 -45 -134 -37 -127 21 -123 211 4 230 51 8 124 -18 135 -48 7 -18 9 -17 29
14 l21 33 -57 28 c-73 36 -150 38 -213 5z"/>
<path d="M3270 2140 c0 -6 -49 -10 -127 -10 -99 0 -124 -3 -115 -12 16 -16 16
-220 0 -236 -9 -9 17 -12 119 -12 96 0 133 -3 136 -12 3 -7 5 10 5 37 0 28 -2
44 -5 38 -3 -9 -32 -13 -94 -13 l-89 0 0 30 c0 30 1 30 55 30 30 0 55 -4 55
-10 0 -5 5 -10 10 -10 6 0 10 20 10 45 0 25 -4 45 -10 45 -5 0 -10 -4 -10 -10
0 -5 -25 -10 -55 -10 -52 0 -55 1 -55 25 0 25 1 25 85 25 50 0 85 -4 85 -10 0
-5 5 -10 10 -10 6 0 10 20 10 45 0 25 -4 45 -10 45 -5 0 -10 -4 -10 -10z"/>
<path d="M5230 2140 c0 -6 -49 -10 -127 -10 -99 0 -124 -3 -115 -12 16 -16 16
-220 0 -236 -9 -9 17 -12 119 -12 96 0 133 -3 136 -12 3 -7 5 10 5 37 0 28 -2
44 -5 38 -3 -9 -32 -13 -94 -13 l-89 0 0 30 c0 30 1 30 55 30 30 0 55 -4 55
-10 0 -5 5 -10 10 -10 6 0 10 20 10 45 0 25 -4 45 -10 45 -5 0 -10 -4 -10 -10
0 -5 -25 -10 -55 -10 -52 0 -55 1 -55 25 0 25 1 25 85 25 50 0 85 -4 85 -10 0
-5 5 -10 10 -10 6 0 10 20 10 45 0 25 -4 45 -10 45 -5 0 -10 -4 -10 -10z"/>
<path d="M4739 2119 c-69 -40 -92 -123 -53 -191 29 -50 76 -70 154 -65 78 4
150 31 132 49 -16 16 -15 71 0 86 9 9 -4 12 -60 12 -41 0 -72 4 -72 10 0 6 -4
10 -10 10 -5 0 -10 -20 -10 -45 0 -25 5 -45 10 -45 6 0 10 5 10 10 0 6 16 10
35 10 25 0 35 -4 35 -15 0 -40 -116 -44 -154 -6 -27 27 -28 91 -2 120 32 36
81 38 157 7 10 -5 19 1 27 19 7 14 12 27 12 29 0 2 -20 9 -44 15 -68 17 -126
13 -167 -10z"/>
<path d="M3748 2118 c16 -16 16 -220 0 -236 -9 -9 0 -12 42 -12 42 0 51 3 42
12 -7 7 -12 31 -12 55 l0 43 75 0 75 0 0 -43 c0 -24 -5 -48 -12 -55 -9 -9 8
-12 79 -12 l90 0 -5 25 c-4 25 -4 25 66 25 55 0 71 -3 76 -16 3 -9 4 -20 0
-25 -3 -5 33 -9 83 -9 l88 0 -3 82 -4 82 74 -69 c40 -39 72 -75 72 -82 -1 -9
14 -13 49 -13 40 0 48 3 39 12 -8 8 -12 49 -12 118 0 69 4 110 12 118 9 9 0
12 -42 12 -42 0 -51 -3 -42 -12 7 -7 12 -41 12 -82 l0 -70 -70 69 c-39 38 -68
75 -65 82 3 10 -11 13 -52 13 -44 0 -54 -3 -45 -12 14 -14 17 -224 3 -232 -5
-4 -37 44 -70 106 -47 85 -58 114 -50 125 9 11 1 13 -44 13 -49 0 -55 -2 -50
-19 5 -21 -92 -221 -107 -221 -15 0 -13 213 2 228 9 9 0 12 -42 12 -42 0 -51
-3 -42 -12 7 -7 12 -29 12 -50 l0 -38 -75 0 -75 0 0 38 c0 21 5 43 12 50 9 9
0 12 -42 12 -42 0 -51 -3 -42 -12z m465 -113 l17 -35 -40 0 -40 0 17 35 c9 19
20 35 23 35 3 0 14 -16 23 -35z"/>
</g>
</svg>
